<svg xmlns="http://www.w3.org/2000/svg" viewBox="0 0 226.87 84.03"><defs><style>.cls-1{fill:#c86500;}.cls-2{fill:#58595b;}</style></defs><title>Asset 1</title><g id="Layer_2" data-name="Layer 2"><g id="Layer_1-2" data-name="Layer 1"><path class="cls-1" d="M170,41.09a102.32,102.32,0,0,1-24.17,6.3,3.75,3.75,0,0,0-3.24,3.73v3.46a108.65,108.65,0,0,0,20.68-4,9.49,9.49,0,0,0,6.83-9.09v-.37a.07.07,0,0,0-.09,0Z"/><path d="M202.19,7a14.06,14.06,0,0,0-5.42-5.12,17.14,17.14,0,0,0-15.53,0A13.79,13.79,0,0,0,175.82,7a14,14,0,0,0-2,7.34,13.93,13.93,0,0,0,2,7.34,13.74,13.74,0,0,0,5.44,5.13,17.14,17.14,0,0,0,15.53,0,14,14,0,0,0,5.42-5.13,13.85,13.85,0,0,0,2-7.34A13.9,13.9,0,0,0,202.19,7Zm-5.64,11.93a8.09,8.09,0,0,1-3.1,3.15,9.27,9.27,0,0,1-8.87,0,8.12,8.12,0,0,1-3.11-3.15,9.23,9.23,0,0,1-1.12-4.59,9.22,9.22,0,0,1,1.12-4.58,8.12,8.12,0,0,1,3.11-3.15,9.27,9.27,0,0,1,8.87,0,8.09,8.09,0,0,1,3.1,3.15,9.23,9.23,0,0,1,1.13,4.58A9.24,9.24,0,0,1,196.55,18.91Z"/><path d="M221.86,43.49a44.82,44.82,0,0,0-5.18-1.5,23.5,23.5,0,0,1-4.53-1.37,2.24,2.24,0,0,1-1.48-2.13A2.64,2.64,0,0,1,212,36.2a7.23,7.23,0,0,1,4-.87,12,12,0,0,1,6.83,1.72l4-3.19a15.88,15.88,0,0,0-5.62-3,21.43,21.43,0,0,0-5.18-.64,16.15,16.15,0,0,0-6.43,1.15,8.77,8.77,0,0,0-4,3.12,7.69,7.69,0,0,0-1.3,4.37,6.52,6.52,0,0,0,1.44,4.43,8.39,8.39,0,0,0,3.46,2.41,43.48,43.48,0,0,0,5.19,1.51c1.37.32,2.45.61,3.26.87a5.81,5.81,0,0,1,2,1,2,2,0,0,1,.77,1.64,2.46,2.46,0,0,1-1.3,2.16,7.89,7.89,0,0,1-4,.81,16.15,16.15,0,0,1-4.91-.79,13.13,13.13,0,0,1-2.39-1l-4.94,2.88a14.64,14.64,0,0,0,5.85,3.14,22.76,22.76,0,0,0,6.35.89,16.14,16.14,0,0,0,6.45-1.15,8.85,8.85,0,0,0,4-3.1,7.54,7.54,0,0,0,1.33-4.34,6.38,6.38,0,0,0-1.44-4.39A8.62,8.62,0,0,0,221.86,43.49Z"/><path d="M79.66,32.07a17.22,17.22,0,0,0-15.53,0,13.74,13.74,0,0,0-5.42,5.13,14.72,14.72,0,0,0,0,14.68A13.79,13.79,0,0,0,64.13,57a17.14,17.14,0,0,0,15.53,0,14.13,14.13,0,0,0,0-24.93Zm-.22,17.06a8.07,8.07,0,0,1-3.1,3.14,9.27,9.27,0,0,1-8.87,0,8.07,8.07,0,0,1-3.1-3.14,9.89,9.89,0,0,1,0-9.18,8.09,8.09,0,0,1,3.1-3.15,9.34,9.34,0,0,1,8.87,0,8.09,8.09,0,0,1,3.1,3.15A9.89,9.89,0,0,1,79.44,49.13Z"/><polygon points="95.12 30.69 87.06 30.69 87.06 37.11 95.12 37.11 95.12 58.56 101.55 58.56 101.55 37.11 109.61 37.11 109.61 30.69 101.55 30.69 95.12 30.69"/><path d="M20.34,44A6.65,6.65,0,0,0,24,37.89a6.15,6.15,0,0,0-2.71-5.26q-2.72-1.94-7.78-1.94H0v27.7H14.32c3.62,0,6.37-.66,8.25-2a6.4,6.4,0,0,0,2.83-5.6,6.94,6.94,0,0,0-1.34-4.3A7.36,7.36,0,0,0,20.34,44Zm-2.67,8.75a7.15,7.15,0,0,1-3.82.83H6.37V46.71h0V42.05h0V35.49h6.37a6.57,6.57,0,0,1,3.6.81,2.72,2.72,0,0,1,1.23,2.43,2.79,2.79,0,0,1-1.23,2.46,6.83,6.83,0,0,1-3.6.83c-.71.84-1.26,4.66,1.57,4.66,3.43,0,4.64,1.15,4.64,3.45A2.84,2.84,0,0,1,17.67,52.73Z"/><path d="M199.86,46.06a9.46,9.46,0,0,0,1.48-5.32,9.54,9.54,0,0,0-1.47-5.34,9.34,9.34,0,0,0-4.17-3.48,15.37,15.37,0,0,0-6.39-1.23H176.17v27.7h6.41V50.67h.05v-5.1h-.05V35.91H189a6.72,6.72,0,0,1,4.39,1.25,4.36,4.36,0,0,1,1.51,3.58,4.37,4.37,0,0,1-1.51,3.56,6.22,6.22,0,0,1-3.76,1.19,5.87,5.87,0,0,0,.5,5.93c1.16,1.67,4.89,6.93,4.89,6.93h6.88l-6.21-8.86A9.47,9.47,0,0,0,199.86,46.06Z"/><path d="M52.86,46.06a9.39,9.39,0,0,0,1.49-5.32,9.54,9.54,0,0,0-1.47-5.34,9.34,9.34,0,0,0-4.17-3.48,15.37,15.37,0,0,0-6.39-1.23H29.18v27.7h6.41V50.67h0v-5.1h0V35.91H42a6.72,6.72,0,0,1,4.39,1.25,4.36,4.36,0,0,1,1.51,3.58,4.37,4.37,0,0,1-1.51,3.56,6.22,6.22,0,0,1-3.76,1.19,5.87,5.87,0,0,0,.5,5.93C44.25,53.09,48,58.35,48,58.35h6.89l-6.21-8.86A9.39,9.39,0,0,0,52.86,46.06Z"/><polygon points="132.38 42.08 119.79 42.08 119.79 30.61 113.39 30.61 113.39 58.86 119.79 58.86 119.79 47.5 132.38 47.5 132.38 58.86 138.79 58.86 138.79 30.61 132.38 30.61 132.38 42.08"/><polygon points="119.72 0 113.39 0 113.39 21.06 113.39 27.35 113.39 27.4 138.79 27.4 138.79 21.06 119.72 21.06 119.72 0"/><path class="cls-1" d="M169.93,3c-5.79,4.31-15.53,8.23-24.38,10a3.71,3.71,0,0,0-3,3.65v3.72a75,75,0,0,0,24.6-7.89,5.45,5.45,0,0,0,2.93-4.83V3.08A.09.09,0,0,0,170,3Z"/><path class="cls-1" d="M170,22.54a80.94,80.94,0,0,1-24.24,7.66,3.74,3.74,0,0,0-3.14,3.72v3.57A91.43,91.43,0,0,0,167,31.27a4.85,4.85,0,0,0,3-4.5V22.62a.09.09,0,0,0-.1-.08Z"/><path class="cls-2" d="M0,70.9H1.37v1.38a3.84,3.84,0,0,1,3.16-1.66A3.2,3.2,0,0,1,6.26,71a2.12,2.12,0,0,1,.9,1.16A3.49,3.49,0,0,1,8.63,71a4.51,4.51,0,0,1,1.8-.38,3,3,0,0,1,2.31.81,3.51,3.51,0,0,1,.72,2.4v5.93h-1.4V74a2.68,2.68,0,0,0-.44-1.74,2,2,0,0,0-1.54-.5,3.12,3.12,0,0,0-2.63,1.43A5.35,5.35,0,0,1,7.5,74v5.72H6.12V74a2.92,2.92,0,0,0-.41-1.76,1.86,1.86,0,0,0-1.52-.52A3.42,3.42,0,0,0,1.4,73.54v6.22H0Z"/><path class="cls-2" d="M20.48,79.24A2.77,2.77,0,0,1,19.55,77a2.84,2.84,0,0,1,.9-2.25A3.93,3.93,0,0,1,23.08,74a6.5,6.5,0,0,1,3.3.79v-.66a2.18,2.18,0,0,0-.68-1.78,3.3,3.3,0,0,0-2.16-.59,6.94,6.94,0,0,0-2.9.6V71.15a6.49,6.49,0,0,1,1.4-.38,9.41,9.41,0,0,1,1.63-.15,4.46,4.46,0,0,1,3.12,1,3.41,3.41,0,0,1,1,2.63v5.56H26.48V78.62A4.21,4.21,0,0,1,23,80,3.79,3.79,0,0,1,20.48,79.24Zm4.69-.75a2.69,2.69,0,0,0,1.21-1.12V75.94a5.91,5.91,0,0,0-1.43-.62,6.05,6.05,0,0,0-1.6-.19,2.81,2.81,0,0,0-1.82.47A1.77,1.77,0,0,0,21,77c0,1.23.8,1.85,2.4,1.85A3.91,3.91,0,0,0,25.17,78.49Z"/><path class="cls-2" d="M34.55,70.9h1.39v1.73c.71-1.16,2-1.73,4-1.73V72q-3.21,0-4,2.13v5.59H34.55Z"/><path class="cls-2" d="M46,66.11h1.42V79.76H46Zm1.74,9.18,4.34-4.39h1.81l-4.36,4.39,4.79,4.47H52.55Z"/><path class="cls-2" d="M61.44,78.8a4.44,4.44,0,0,1-1.36-3.45,4.82,4.82,0,0,1,1.18-3.46,4.59,4.59,0,0,1,3.48-1.27,5.18,5.18,0,0,1,2.56.58,3.77,3.77,0,0,1,1.59,1.6,4.86,4.86,0,0,1,.54,2.31v.77h-8a2.85,2.85,0,0,0,1.12,2.28,4.78,4.78,0,0,0,2.84.75,9.71,9.71,0,0,0,1.71-.15,7.37,7.37,0,0,0,1.5-.44v1.17a7.1,7.1,0,0,1-1.5.37,12,12,0,0,1-1.86.15A5.4,5.4,0,0,1,61.44,78.8Zm6.7-3.93a3.15,3.15,0,0,0-.88-2.27,3.39,3.39,0,0,0-2.49-.84,3.33,3.33,0,0,0-2.46.86,3.21,3.21,0,0,0-.89,2.25Z"/><path class="cls-2" d="M77.26,79.3a3,3,0,0,1-.69-2.1V72H75.2V70.9h1.38V68.24H78V70.9h2.26V72H78v5.23a1.4,1.4,0,0,0,1.72,1.68,2.65,2.65,0,0,0,1-.22v1.17A5.46,5.46,0,0,1,79.2,80,2.58,2.58,0,0,1,77.26,79.3Z"/><path class="cls-2" d="M87.19,68.72a.85.85,0,0,1-.26-.63.82.82,0,0,1,.26-.63.85.85,0,0,1,.62-.26.9.9,0,0,1,.64.26.83.83,0,0,1,.27.63.86.86,0,0,1-.27.63.89.89,0,0,1-.64.25A.84.84,0,0,1,87.19,68.72Zm-.08,2.18h1.43v8.86H87.11Z"/><path class="cls-2" d="M95.56,70.9h1.38v1.33A3.82,3.82,0,0,1,98.52,71a5.12,5.12,0,0,1,2-.39,3.41,3.41,0,0,1,2.61.92A3.51,3.51,0,0,1,104,74v5.74h-1.43V74.15a2.57,2.57,0,0,0-.56-1.77,2.28,2.28,0,0,0-1.77-.62A3.7,3.7,0,0,0,97,73.61v6.15H95.56Z"/><path class="cls-2" d="M113.57,83.87a6.39,6.39,0,0,1-1.44-.41v-1.2a7.65,7.65,0,0,0,3.18.63,3.76,3.76,0,0,0,2.67-.83,3.27,3.27,0,0,0,.86-2.48V78.27A4.28,4.28,0,0,1,115,80a4.85,4.85,0,0,1-2.38-.58A4.26,4.26,0,0,1,111,77.81a5.31,5.31,0,0,1,0-4.94,4.36,4.36,0,0,1,1.67-1.66,4.78,4.78,0,0,1,2.36-.59,5.55,5.55,0,0,1,2.27.41,4.2,4.2,0,0,1,1.61,1.36V70.9h1.39v8.49A4.58,4.58,0,0,1,119,82.83,5.17,5.17,0,0,1,115.31,84,11.14,11.14,0,0,1,113.57,83.87Zm4-5.62a3.36,3.36,0,0,0,1.3-1.83v-2.2a3.39,3.39,0,0,0-1.32-1.81,3.83,3.83,0,0,0-2.23-.65,3.61,3.61,0,0,0-1.79.46,3.31,3.31,0,0,0-1.27,1.27,3.7,3.7,0,0,0-.46,1.87,3.65,3.65,0,0,0,.46,1.87,3.22,3.22,0,0,0,1.24,1.26,3.6,3.6,0,0,0,1.79.44,3.83,3.83,0,0,0,2.25-.68Z"/><path class="cls-2" d="M138.93,79.24A2.78,2.78,0,0,1,138,77a2.85,2.85,0,0,1,.91-2.25,3.9,3.9,0,0,1,2.62-.78,6.54,6.54,0,0,1,3.31.79v-.66a2.21,2.21,0,0,0-.68-1.78,3.3,3.3,0,0,0-2.16-.59,7,7,0,0,0-2.91.6V71.15a6.43,6.43,0,0,1,1.41-.38,9.39,9.39,0,0,1,1.62-.15,4.47,4.47,0,0,1,3.13,1,3.44,3.44,0,0,1,1,2.63v5.56h-1.33V78.62A4.19,4.19,0,0,1,141.46,80,3.79,3.79,0,0,1,138.93,79.24Zm4.69-.76a2.69,2.69,0,0,0,1.21-1.12V75.94a5.47,5.47,0,0,0-3-.81,2.8,2.8,0,0,0-1.82.47,1.74,1.74,0,0,0-.56,1.43c0,1.23.8,1.85,2.4,1.85a4,4,0,0,0,1.77-.39Z"/><path class="cls-2" d="M155.84,83.87a6.55,6.55,0,0,1-1.44-.41v-1.2a7.71,7.71,0,0,0,3.18.63,3.73,3.73,0,0,0,2.67-.83,3.27,3.27,0,0,0,.86-2.48V78.27A4.27,4.27,0,0,1,157.26,80a4.88,4.88,0,0,1-2.38-.58,4.17,4.17,0,0,1-1.62-1.65,5.31,5.31,0,0,1,0-4.94,4.27,4.27,0,0,1,1.66-1.66,4.78,4.78,0,0,1,2.36-.59,5.6,5.6,0,0,1,2.28.41,4.17,4.17,0,0,1,1.6,1.36V70.9h1.39v8.49a4.58,4.58,0,0,1-1.22,3.44A5.17,5.17,0,0,1,157.6,84,11.14,11.14,0,0,1,155.84,83.87Zm4-5.62a3.36,3.36,0,0,0,1.3-1.83v-2.2a3.43,3.43,0,0,0-1.31-1.81,3.89,3.89,0,0,0-2.24-.65,3.57,3.57,0,0,0-1.78.46,3.27,3.27,0,0,0-1.3,1.27,3.7,3.7,0,0,0-.46,1.87,3.65,3.65,0,0,0,.46,1.87,3.18,3.18,0,0,0,1.27,1.26,3.56,3.56,0,0,0,1.78.44,3.81,3.81,0,0,0,2.25-.68Z"/><path class="cls-2" d="M170.35,78.8A4.43,4.43,0,0,1,169,75.35a4.78,4.78,0,0,1,1.26-3.46,4.57,4.57,0,0,1,3.47-1.27,5.22,5.22,0,0,1,2.57.58,3.89,3.89,0,0,1,1.59,1.6,5,5,0,0,1,.53,2.31v.77h-8.05a2.84,2.84,0,0,0,1.11,2.28,4.81,4.81,0,0,0,2.84.75,9.71,9.71,0,0,0,1.71-.15,7.67,7.67,0,0,0,1.51-.44v1.17a7.22,7.22,0,0,1-1.51.37,11.85,11.85,0,0,1-1.86.15A5.4,5.4,0,0,1,170.35,78.8Zm6.7-3.93a3.14,3.14,0,0,0-.88-2.27,3.42,3.42,0,0,0-2.5-.84,3.33,3.33,0,0,0-2.46.86,3.2,3.2,0,0,0-.88,2.25Z"/><path class="cls-2" d="M184.85,70.9h1.41v1.33A3.89,3.89,0,0,1,187.84,71a5.15,5.15,0,0,1,2-.39,3.41,3.41,0,0,1,2.61.92,3.47,3.47,0,0,1,.86,2.48v5.74h-1.42V74.15a2.57,2.57,0,0,0-.55-1.77,2.29,2.29,0,0,0-1.78-.62,3.71,3.71,0,0,0-3.3,1.85v6.15h-1.42Z"/><path class="cls-2" d="M202,79.49a4.15,4.15,0,0,1-1.76-1.64,4.81,4.81,0,0,1-.63-2.5,4.92,4.92,0,0,1,.63-2.51A4.27,4.27,0,0,1,202,71.19a5.56,5.56,0,0,1,2.55-.57,8,8,0,0,1,1.79.18,4.45,4.45,0,0,1,1.39.59V72.6a5.12,5.12,0,0,0-3.05-.84,3.7,3.7,0,0,0-2.64,1,3.91,3.91,0,0,0,0,5.27,3.67,3.67,0,0,0,2.58.93,6.32,6.32,0,0,0,1.76-.22,5.35,5.35,0,0,0,1.48-.68v1.2a4.4,4.4,0,0,1-1.45.64,8.31,8.31,0,0,1-1.92.19A5.62,5.62,0,0,1,202,79.49Z"/><path class="cls-2" d="M214.06,83.26V82.11a3.21,3.21,0,0,0,.58.13,4.22,4.22,0,0,0,.64.06,1.48,1.48,0,0,0,1-.34,2.83,2.83,0,0,0,.71-1.11l.48-1.14-3.94-8.81h1.52l3.21,7.16,2.94-7.16h1.52l-4.1,10a4.92,4.92,0,0,1-1.21,1.87,2.69,2.69,0,0,1-1.81.6A6.3,6.3,0,0,1,214.06,83.26Z"/></g></g></svg>