<?xml version="1.0" encoding="utf-8"?>
<!-- Generator: Adobe Illustrator 21.1.0, SVG Export Plug-In . SVG Version: 6.00 Build 0)  -->
<svg version="1.1" id="Layer_1" xmlns="http://www.w3.org/2000/svg" xmlns:xlink="http://www.w3.org/1999/xlink" x="0px" y="0px"
	 viewBox="0 0 155.9 28.4" style="enable-background:new 0 0 155.9 28.4;" xml:space="preserve">
<style type="text/css">
	.st0{fill:url(#SVGID_1_);}
	.st1{fill:url(#SVGID_2_);}
	.st2{fill:url(#SVGID_3_);}
	.st3{fill:url(#SVGID_4_);}
	.st4{fill:url(#SVGID_5_);}
	.st5{fill:url(#SVGID_6_);}
	.st6{fill:url(#SVGID_7_);}
	.st7{fill:url(#SVGID_8_);}
	.st8{fill:#FFFFFF;}
	.st9{fill:url(#SVGID_9_);}
	.st10{fill:url(#SVGID_10_);}
	.st11{fill:url(#SVGID_11_);}
</style>
<title>Asset 1</title>
<g>
	<g>
		<linearGradient id="SVGID_1_" gradientUnits="userSpaceOnUse" x1="-0.6286" y1="22.8835" x2="29.5385" y2="5.4665">
			<stop  offset="0" style="stop-color:#0088EF"/>
			<stop  offset="1" style="stop-color:#38EF7D"/>
		</linearGradient>
		<path class="st0" d="M23.8,28.2H5.1c-2.6,0-4.7-2.1-4.7-4.7V4.8c0-2.6,2.1-4.7,4.7-4.7h18.7c2.6,0,4.7,2.1,4.7,4.7v18.7
			C28.5,26.1,26.4,28.2,23.8,28.2z"/>
		<g>
			<g>
				<linearGradient id="SVGID_2_" gradientUnits="userSpaceOnUse" x1="10.7193" y1="15.7724" x2="9.3246" y2="23.6818">
					<stop  offset="0" style="stop-color:#FFFFFF"/>
					<stop  offset="1" style="stop-color:#FFFFFF;stop-opacity:0.5"/>
				</linearGradient>
				<polygon class="st1" points="11.1,19.9 12.1,16 8.4,18.9 7.7,21.9 7.7,21.9 7.3,23.3 12.2,19.3 				"/>
				<linearGradient id="SVGID_3_" gradientUnits="userSpaceOnUse" x1="16.5776" y1="15.7734" x2="15.1832" y2="23.6818">
					<stop  offset="0" style="stop-color:#FFFFFF"/>
					<stop  offset="1" style="stop-color:#FFFFFF;stop-opacity:0.5"/>
				</linearGradient>
				<polygon class="st2" points="17,19.9 17.9,16 14.3,18.9 13.2,23.3 18,19.3 				"/>
				<linearGradient id="SVGID_4_" gradientUnits="userSpaceOnUse" x1="11.8903" y1="10.3443" x2="11.1344" y2="14.6309">
					<stop  offset="0" style="stop-color:#FFFFFF"/>
					<stop  offset="1" style="stop-color:#FFFFFF;stop-opacity:0.5"/>
				</linearGradient>
				<polygon class="st3" points="9.5,14.5 12.5,14.5 13.6,10.2 9.9,13.1 				"/>
				<linearGradient id="SVGID_5_" gradientUnits="userSpaceOnUse" x1="17.7439" y1="10.3717" x2="16.9881" y2="14.6583">
					<stop  offset="0" style="stop-color:#FFFFFF"/>
					<stop  offset="1" style="stop-color:#FFFFFF;stop-opacity:0.5"/>
				</linearGradient>
				<polygon class="st4" points="15.4,14.5 18.3,14.5 19.4,10.2 15.7,13.1 				"/>
			</g>
			<g>
				<linearGradient id="SVGID_6_" gradientUnits="userSpaceOnUse" x1="4.3365" y1="17.4761" x2="22.8978" y2="17.4761">
					<stop  offset="0" style="stop-color:#FFFFFF"/>
					<stop  offset="1" style="stop-color:#FFFFFF;stop-opacity:0.5"/>
				</linearGradient>
				<polygon class="st5" points="13.8,16 13.1,18.9 14.3,18.9 17.9,16 				"/>
				<linearGradient id="SVGID_7_" gradientUnits="userSpaceOnUse" x1="4.3366" y1="17.1015" x2="22.8976" y2="17.1015">
					<stop  offset="0" style="stop-color:#FFFFFF"/>
					<stop  offset="1" style="stop-color:#FFFFFF;stop-opacity:0.5"/>
				</linearGradient>
				<polygon class="st6" points="8.4,16 9,15.3 8.1,16 8.1,16 4.4,18.9 6.2,18.9 8.4,18.9 12.1,16 				"/>
				<linearGradient id="SVGID_8_" gradientUnits="userSpaceOnUse" x1="4.3365" y1="17.2227" x2="22.8977" y2="17.2227">
					<stop  offset="0" style="stop-color:#FFFFFF"/>
					<stop  offset="1" style="stop-color:#FFFFFF;stop-opacity:0.5"/>
				</linearGradient>
				<path class="st7" d="M21.7,16h-2l-0.4,1.5l0,0l-0.4,1.4l4.1-3.4l-0.6,0.3C22.2,15.9,21.9,16,21.7,16z"/>
			</g>
			<g>
				<path class="st8" d="M14.6,5.8L14.6,5.8l-3.5,2.9h1.8h1l0.5-1.8c0.1-0.2,0.2-0.4,0.3-0.6L15.6,5L14.6,5.8z"/>
				<path class="st8" d="M21.4,5l-0.9,0.8l0,0L17,8.7h1.8h1l0.5-1.8c0.1-0.2,0.2-0.4,0.3-0.6L21.4,5z"/>
			</g>
			<linearGradient id="SVGID_9_" gradientUnits="userSpaceOnUse" x1="5.5976" y1="11.6232" x2="25.4101" y2="11.6232">
				<stop  offset="0" style="stop-color:#FFFFFF"/>
				<stop  offset="1" style="stop-color:#FFFFFF;stop-opacity:0.5"/>
			</linearGradient>
			<polygon class="st9" points="15.7,13.1 19.4,10.2 15.3,10.2 14.5,13.1 			"/>
			<linearGradient id="SVGID_10_" gradientUnits="userSpaceOnUse" x1="5.5974" y1="11.2485" x2="25.4101" y2="11.2485">
				<stop  offset="0" style="stop-color:#FFFFFF"/>
				<stop  offset="1" style="stop-color:#FFFFFF;stop-opacity:0.5"/>
			</linearGradient>
			<polygon class="st10" points="9.7,10.2 10.3,9.4 9.4,10.2 9.4,10.2 5.9,13.1 7.6,13.1 9.9,13.1 13.6,10.2 			"/>
			<linearGradient id="SVGID_11_" gradientUnits="userSpaceOnUse" x1="6.1693" y1="11.3777" x2="25.9818" y2="11.3777">
				<stop  offset="0" style="stop-color:#FFFFFF"/>
				<stop  offset="0.8721" style="stop-color:#FFFFFF;stop-opacity:0.5639"/>
				<stop  offset="1" style="stop-color:#FFFFFF;stop-opacity:0.5"/>
			</linearGradient>
			<path class="st11" d="M24.5,9.7L24,10c-0.3,0.1-0.5,0.2-0.8,0.2h-2l-0.7,2.9l0,0l0,0L24.5,9.7z"/>
		</g>
	</g>
	<g>
		<path d="M39.9,9.4h-4.3c-0.1,0-0.2-0.1-0.2-0.2l0-2c0-0.1,0.1-0.2,0.2-0.2H47c0.1,0,0.2,0.1,0.2,0.2v2c0,0.1-0.1,0.2-0.2,0.2h-4.3
			c-0.1,0-0.2,0.1-0.2,0.2v11.8c0,0.1-0.1,0.2-0.2,0.2h-2.3c-0.1,0-0.2-0.1-0.2-0.2V9.5C40,9.4,40,9.4,39.9,9.4z"/>
		<path d="M50.1,7h2.2c0.1,0,0.2,0.1,0.2,0.2v5.7c0,0.1,0.1,0.2,0.2,0.2h6.6c0.1,0,0.2-0.1,0.2-0.2V7.2c0-0.1,0.1-0.2,0.2-0.2h2.2
			c0.1,0,0.2,0.1,0.2,0.2v14.2c0,0.1-0.1,0.2-0.2,0.2h-2.2c-0.1,0-0.2-0.1-0.2-0.2v-5.8c0-0.1-0.1-0.2-0.2-0.2h-6.6
			c-0.1,0-0.2,0.1-0.2,0.2v5.8c0,0.1-0.1,0.2-0.2,0.2h-2.2c-0.1,0-0.2-0.1-0.2-0.2V7.2C49.9,7.1,50,7,50.1,7z"/>
		<path d="M65.8,7h10.4c0.1,0,0.2,0.1,0.2,0.2v2c0,0.1-0.1,0.2-0.2,0.2h-7.9c-0.1,0-0.2,0.1-0.2,0.2v3.5c0,0.1,0.1,0.2,0.2,0.2h6.9
			c0.1,0,0.2,0.1,0.2,0.2v2c0,0.1-0.1,0.2-0.2,0.2h-6.9c-0.1,0-0.2,0.1-0.2,0.2V19c0,0.1,0.1,0.2,0.2,0.2h8c0.1,0,0.2,0.1,0.2,0.2v2
			c0,0.1-0.1,0.2-0.2,0.2H65.8c-0.1,0-0.2-0.1-0.2-0.2V7.2C65.6,7.1,65.7,7,65.8,7z M69.8,2.6H72c0,0,0.1,0,0.1,0.1l2.2,2.7
			c0.1,0.1,0,0.3-0.1,0.3h-1.6c0,0-0.1,0-0.1,0L71,4.3c-0.1-0.1-0.1-0.1-0.2,0l-1.4,1.3c0,0-0.1,0-0.1,0h-1.6
			c-0.1,0-0.2-0.2-0.1-0.3l2.2-2.7C69.7,2.6,69.8,2.6,69.8,2.6z M75.5,0.4l1.8,0.9c0.1,0,0.1,0.2,0,0.3l-1.9,1.8c0,0-0.1,0-0.1,0
			h-1.4c-0.1,0-0.2-0.1-0.1-0.2l1.5-2.6C75.4,0.4,75.4,0.3,75.5,0.4z"/>
		<path d="M78.9,14.3L78.9,14.3c0-4.1,3.1-7.5,7.5-7.5c2.5,0,4,0.7,5.4,1.9c0.1,0.1,0.1,0.2,0,0.2l-1.4,1.7c-0.1,0.1-0.2,0.1-0.2,0
			c-1.1-0.9-2.2-1.5-3.9-1.5c-2.7,0-4.7,2.3-4.7,5.1v0c0,3,2,5.2,4.9,5.2c1.3,0,2.5-0.4,3.4-1c0,0,0.1-0.1,0.1-0.1v-2.5
			c0-0.1-0.1-0.2-0.2-0.2h-3.4c-0.1,0-0.2-0.1-0.2-0.2v-1.9c0-0.1,0.1-0.2,0.2-0.2h5.9c0.1,0,0.2,0.1,0.2,0.2v5.9c0,0,0,0.1-0.1,0.1
			c-1.4,1.2-3.5,2.2-6,2.2C81.8,21.7,78.9,18.5,78.9,14.3z"/>
		<path d="M96,7h2.2c0.1,0,0.2,0.1,0.2,0.2v14.2c0,0.1-0.1,0.2-0.2,0.2H96c-0.1,0-0.2-0.1-0.2-0.2V7.2C95.9,7.1,95.9,7,96,7z"/>
		<path d="M101.6,14.3L101.6,14.3c0-4.1,3.1-7.5,7.6-7.5c0.6,0,1.2,0.1,1.7,0.2c0,0,0,0,0,0c0.8,0.1,1.5,0.1,1.7,0.1
			c1,0,1.4-0.6,1.4-1.5c0-0.1,0.1-0.2,0.2-0.2h1.8c0.1,0,0.2,0.1,0.2,0.2c0,1.3-0.6,2.4-1.9,2.8c-0.1,0-0.1,0.2-0.1,0.3
			c1.6,1.4,2.5,3.4,2.5,5.6v0c0,4.1-3.1,7.5-7.6,7.5C104.7,21.7,101.6,18.4,101.6,14.3z M114.1,14.3L114.1,14.3c0-2.9-2-5.2-4.9-5.2
			c-2.9,0-4.9,2.3-4.9,5.1v0c0,2.8,2,5.1,4.9,5.1S114.1,17.1,114.1,14.3z M110.5,2.3l1.9,0.9c0.1,0,0.1,0.2,0,0.3l-2.3,2.2
			c0,0-0.1,0-0.1,0h-1.5c-0.1,0-0.2-0.1-0.1-0.2l1.9-3C110.4,2.3,110.5,2.2,110.5,2.3z"/>
		<path d="M120.2,7h2.2c0.1,0,0.2,0.1,0.2,0.2v14.2c0,0.1-0.1,0.2-0.2,0.2h-2.2c-0.1,0-0.2-0.1-0.2-0.2V7.2C120,7.1,120.1,7,120.2,7
			z"/>
		<path d="M124.8,19.2l2-2.4c0.1-0.1,0.1-0.1,0.2,0c1.4,1.1,2.9,1.6,4.6,1.6c1.1,0,1.7-0.4,1.7-1v0c0-0.6-0.5-0.9-2.5-1.4
			c-3.1-0.7-5.5-1.6-5.5-4.5v0c0-2.7,2.1-4.6,5.6-4.6c2.4,0,4.3,0.6,5.8,1.8c0.1,0.1,0.1,0.1,0,0.2l-1.8,2.6c0,0.1-0.1,0.1-0.2,0
			c-1.3-0.9-2.7-1.3-3.9-1.3c-1,0-1.4,0.4-1.4,0.9v0c0,0.7,0.5,1,2.5,1.4c3.3,0.7,5.4,1.8,5.4,4.5v0c0,3-2.3,4.7-5.9,4.7
			c-2.5,0-4.9-0.8-6.7-2.3C124.8,19.4,124.8,19.3,124.8,19.2z"/>
		<path d="M138.9,14.3L138.9,14.3c0-4.2,3.3-7.6,7.8-7.6s7.8,3.3,7.8,7.5v0c0,4.2-3.4,7.5-7.8,7.5C142.2,21.8,138.9,18.4,138.9,14.3
			z M145.2,2.4h2.8c0,0,0.1,0,0.1,0.1l2.3,2.9c0.1,0.1,0,0.3-0.1,0.3H148c0,0-0.1,0-0.1,0l-1.1-1c-0.1-0.1-0.2-0.1-0.2,0l-1.1,1
			c0,0-0.1,0-0.1,0h-2.3c-0.1,0-0.2-0.2-0.1-0.3l2.3-2.9C145.1,2.4,145.2,2.4,145.2,2.4z M150.3,14.3L150.3,14.3c0-2.2-1.5-4-3.7-4
			c-2.2,0-3.7,1.8-3.7,3.9v0c0,2.1,1.5,3.9,3.7,3.9C148.9,18.1,150.3,16.4,150.3,14.3z M151.9,3.4h-2.1c-0.1,0-0.2-0.1-0.1-0.2
			l1.7-3c0-0.1,0.1-0.1,0.2-0.1l2.4,1c0.1,0,0.1,0.2,0,0.3l-2,1.9C152,3.4,152,3.4,151.9,3.4z"/>
	</g>
</g>
</svg>
